<svg width="512" height="512" xmlns="http://www.w3.org/2000/svg">

 <g>
  <title>background</title>
  <rect fill="none" id="canvas_background" height="402" width="582" y="-1" x="-1"/>
 </g>
 <g>
  <title>Layer 1</title>
  <path fill="#ffffff" id="svg_1" d="m480,512l-448,0c-17.688,0 -32,-14.312 -32,-32l0,-448c0,-17.688 14.312,-32 32,-32l448,0c17.688,0 32,14.312 32,32l0,448c0,17.688 -14.312,32 -32,32zm-32,-448l-384,0l0,384l384,0l0,-384zm-224,160l-96,0l0,-96l96,0l0,96zm0,160l-96,0l0,-96l96,0l0,96zm160,-160l-96,0l0,-96l96,0l0,96zm0,160l-96,0l0,-96l96,0l0,96z"/>
 </g>
</svg>